<?xml version="1.0" encoding="UTF-8" standalone="no"?>
<svg viewBox="0 0 336.61417 399.78723" xmlns="http://www.w3.org/2000/svg">
<defs>
<filter height="1.39671" id="filter3653" width="1.60755" x="-.30378" y="-.19836">
<feGaussianBlur stdDeviation="13.5779"/>
</filter>
<filter height="1.3758" id="filter3657" width="1.66414" x="-.33207" y="-.1879">
<feGaussianBlur stdDeviation="12.4889"/>
</filter>
</defs>
<title>Grim Reaper</title>
<g transform="matrix(.31174,0,0,.31174,-29.04269,9.72642)">
<g stroke="#000" stroke-width="25" transform="translate(10.99778,109.97783)">
<path d="m585.13086,890.68925c106.55536-105.01315-113.42103-286.08296 27.22361-382.19121l68.2358,7.07107 32.88047,68.58935-17.67767,85.91348-24.74874,66.46803-8.48528,32.52692c-17.35504,83.5171-55.62885,106.80636-77.42819,121.62236z" stroke="#000" stroke-linecap="round" stroke-linejoin="round" stroke-width="25"/>
<path d="m574.1707,524.40794c-33.20847,18.30961-29.83716,43.18775-6.56066,69.02869-15.97845,22.91732-29.15386,42.11454 4.82843,66.88226-33.31756,20.5061-11.45035,43.48706 3.24695,63.99316 44.26926-9.51801 100.03912,6.40798 123.64318-65.55382 10.28294-44.0831 24.79125-127.94122-26.87005-92.63099l-45.25484-41.7193c-15.25158-15.27565-34.09074-10.07945-53.03301,0z" stroke="#000" stroke-width="25"/>
<path d="m1149.4576,1103.2245c-35.2644-11.0812-103.8448-25.9279-154.92587-17.461-134.169,22.239-230.9272,18.1348-369.7691-19.4553-57.91332-15.6795-122.84589,10.7672-184.54483,14.2714-183.34375,6.6463-140.61944-101.31847-85.54542-164.81781 74.93807-86.40223 247.90246-34.99371 98.22659,59.74521 88.44326-65.82097-17.92672-131.6643-77.2874-4.7632-8.33005,68.5266 47.37501,54.2694 86.37355,38.8975 110.73884-54.81311 133.48295-77.44097 195.16364-133.44295 84.0711-84.33509 113.61382-234.18814 153.42152-355.37865-57.73914,57.70077-105.12074,147.33728-148.43198,249.52407 2.06087-88.02682 101.42335-180.88421-49.36599-261.32272 58.76524-35.54086 142.51596-26.93472 179.80089-91.93848 17.12331-48.77867-.53432-104.18227-33.96742-162.59073-45.40959-86.54683-110.51702-282.57387 137.68129-264.9459 2.03844.334 141.90903-9.21946 207.88063,73.82253 33.5788,30.07763 17.4574,95.01769 5.4348,144.92767-17.2776,61.5884-52.4449,108.26868-83.3334,158.51464 54.2761,78.66497 118.0489,141.01251 100.0906,240.48936-16.0708,54.60866-46.0157,107.67576-83.7863,159.87333 27.0023,84.28939 3.612,202.77609 106.8842,336.05103z" stroke="#000" stroke-linecap="round" stroke-linejoin="round" stroke-width="25"/>
<path d="m913.04433,513.55005c56.47233-88.30439 122.96777-166.13281 162.13787-271.73938 20.3264-52.29572 47.6162-97.45633 17.663-163.04363-29.4005-43.98531-78.1307-67.66853-198.36973-11.77537-105.18556,43.17715-96.24387,161.23615-69.72307,229.16688l88.29193,217.39151z" stroke="#000" stroke-width="25"/>
<path d="m1026.722,366.35788-100.80445,135.56169" stroke="#000" stroke-linecap="round" stroke-linejoin="round" stroke-width="25"/>
<path d="m927.5371,97.33589c-14.73623,26.80139-16.21498,93.08474 22.19205,74.72833 16.27916-15.40849 33.83446-14.61076 38.04351,8.60508-.0349,28.59068 2.39559,45.27996-22.19205,74.72833-11.89897,9.03658-39.3521,9.52309-57.97107-7.24638-47.90706-57.96604-26.50781-134.8608 19.92756-150.81536z" stroke="#000" stroke-linecap="round" stroke-linejoin="round" stroke-width="25"/>
<path d="m927.5371,97.33589c-14.73623,26.80139-16.21498,93.08474 22.19205,74.72833 16.27916-15.40849 33.83446-14.61076 38.04351,8.60508-.0349,28.59068 2.39559,45.27996-22.19205,74.72833-11.89897,9.03658-39.3521,9.52309-57.97107-7.24638-47.90706-57.96604-26.50781-134.8608 19.92756-150.81536z" filter="url(#filter3653)" stroke="#000" stroke-linecap="round" stroke-linejoin="round" stroke-width="25"/>
<path d="m1061.5597,94.05648c13.2931,23.68096-.8852,87.5355-35.5311,71.31629-14.6851-13.61454-23.5823,15.00521-23.297,16.28767 .032,25.26194-6.65065,42.86193 15.5293,68.88171 10.7337,7.98449 23.6602-.7201 40.4559-15.53714 43.2157-51.21724 44.731-126.85152 2.8429-140.94853z" stroke="#000" stroke-linecap="round" stroke-linejoin="round" stroke-width="25"/>
<path d="m1061.5597,94.05648c13.2931,23.68096-.8852,87.5355-35.5311,71.31629-14.6851-13.61454-23.5823,15.00521-23.297,16.28767 .032,25.26194-6.65065,42.86193 15.5293,68.88171 10.7337,7.98449 23.6602-.7201 40.4559-15.53714 43.2157-51.21724 44.731-126.85152 2.8429-140.94853z" filter="url(#filter3657)" stroke="#000" stroke-linecap="round" stroke-linejoin="round" stroke-width="25"/>
<path d="m913.82887,512.26756c37.74458,78.31059.44735,182.68736 1.02705,273.02188" stroke="#000" stroke-linecap="round" stroke-width="25"/>
<path d="m894.02257,547.51748c.13994-81.82712-88.91542-202.15425-101.44937-292.57274" stroke="#000" stroke-linecap="round" stroke-width="25"/>
<path d="m1011.7763,459.65507c4.073,21.76381 3.3271,42.72445 3.6232,63.85876 8.9171,21.28441 9.9241,44.00704 11.7754,66.57614-8.7106,31.4875-56.69299,28.49945-62.50009,55.25368" stroke="#000" stroke-linecap="round" stroke-width="25"/>
<path d="m995.01904,734.56475c2.22639,99.28286-102.88017,222.12552-27.62683,269.02195-19.70858-4.72426-52.57855-13.86886-58.87687-83.33337-7.99868-85.31433 15.55335-178.95816 25.81524-268.56909 25.65693,2.66058 62.96842-48.28979 60.68846,82.88051z" stroke="#000" stroke-linecap="round" stroke-linejoin="round" stroke-width="25"/>
<path d="m1025.6584,369.90511c169.9751,199.51662 98.0672,273.40135 12.8063,400.14131-27.3606,50.3058-56.61588,73.12727-90.23451,142.91669 76.85911-191.72401 255.46251-265.08795 77.42821-543.058z" opacity=".45" stroke="#000" stroke-width="25"/>
<path d="m1042.1205,767.62637c-24.8581,49.71443-85.43814,106.97199-100.54354,167.11973" stroke="#000" stroke-width="25"/>
<path d="m697.91439,102.2652-6.36397,53.74011c-145.78764,170.29016-168.5249,755.07256 54.44723,972.27179 59.44879,4.5313 61.24836-23.6053 65.76093-50.2046-162.2186-94.65027-302.62311-673.06165-65.76093-924.18851l79.90306-53.03301-127.98632,1.41422z" stroke="#000" stroke-width="25"/>
<path d="m737.06261,146.10582c-253.82958,277.79568-78.34426,882.17308 68.57409,956.70378 4.91838-8.9927 4.2987-13.9904 6.12188-24.7371-162.2186-94.65027-302.62311-673.06165-65.76093-924.18851l79.90306-53.03301-9.72267,2.21018-79.11543,43.04466z" opacity=".45" stroke="#000" stroke-width="25"/>
<path d="m697.91439,102.2652-6.36397,53.74011c-145.78764,170.29016-168.5249,755.07256 54.44723,972.27179 6.47979.4939 12.27468.5997 17.46283.3617-198.42007-221.41844-249.88104-823.94537-11.55977-1022.28782l-53.98632-4.08578z" opacity=".45" stroke="#000" stroke-width="25"/>
<path d="m94.66548,622c94.46133-338.21006 398.71142-821.4367 987.00002-741.99999-176.47353-.18859-270.67078,76.12531-229.00002,238.99999-401.74069-79.48237-697.13818,373.34109-758,503z" stroke="#000" stroke-width="25"/>
<path d="m697.91439,102.2652-6.36397,53.74011c-145.78764,170.29016-168.5249,755.07256 54.44723,972.27179 59.44879,4.5313 61.24836-23.6053 65.76093-50.2046-162.2186-94.65027-302.62311-673.06165-65.76093-924.18851l79.90306-53.03301-127.98632,1.41422z" stroke="#000" stroke-linecap="round" stroke-linejoin="round" stroke-width="25"/>
<path d="m94.66548,622c22.57637-80.83261 57.13621-169.9488 104.69317-257.68722 73.16413-127.17834 327.45245-360.6723 646.48296-350.28013-5.47091,29.81278-3.4652,64.75142 6.82387,104.96735-401.74069-79.48237-697.13818,373.34109-758,503z" stroke="#000" stroke-width="25"/>
<path d="m1014.0769,506.68002c-12.0447-6.68661-17.77949-16.9789-25.54162-26.1127" stroke="#000" stroke-linecap="round" stroke-width="25"/>
<path d="m824.4865,487.63839c-.94022,13.51606-8.26072,22.47478-13.47056,32.94112-.89258-9.0643 2.71636-17.62844-3.5-27.28427" stroke="#000" stroke-linecap="round" stroke-width="25"/>
<path d="m94.66548,622c94.46133-338.21006 398.71142-821.4367 987.00002-741.99999-176.47353-.18859-270.67078,76.12531-229.00002,238.99999-401.74069-79.48237-697.13818,373.34109-758,503z" stroke="#000" stroke-linecap="round" stroke-linejoin="round" stroke-width="25"/>
<path d="m676.25754,552.48944c0,23.2362-11.05849,34.29468-34.29468,34.29468s-43.48707,3.79076-43.48707-19.44544 12.4727-54.80077 35.7089-54.80077 42.07285,16.71534 42.07285,39.95153z" stroke="#000" stroke-width="25"/>
<path d="m578.41342,593.30719h60.81118a33.63125,33.63125 0 0,1 33.63125,33.63125 33.63125,33.63125 0 0,1 -33.63125,33.63125h-60.81118a33.63125,33.63125 0 0,1 -33.63125-33.63125 33.63125,33.63125 0 0,1 33.63125-33.63125" stroke="#000" stroke-width="25"/>
<path d="m581.59538,659.66687h48.08328a32.679,32.679 0 0,1 32.679,32.679 32.679,32.679 0 0,1 -32.679,32.679h-48.08328a32.679,32.679 0 0,1 -32.679-32.679 32.679,32.679 0 0,1 32.679-32.679" stroke="#000" stroke-width="25"/>
<g stroke="#000" stroke-width="25">
<path d="m578.41342,528.25336h60.81118a33.63125,33.63125 0 0,1 33.63125,33.63125 33.63125,33.63125 0 0,1 -33.63125,33.63125h-60.81118a33.63125,33.63125 0 0,1 -33.63125-33.63125 33.63125,33.63125 0 0,1 33.63125-33.63125" stroke="#000" stroke-width="25"/>
<path d="m623.31463,528.29703c4.64517,18.62418 14.5952,35.4237 2.12132,65.76092" stroke="#000" stroke-linecap="round" stroke-linejoin="round" stroke-width="25"/>
</g>
<path d="m625.43595,593.70441c4.64517,18.62418 14.5952,35.4237 2.12132,65.76092" stroke="#000" stroke-linecap="round" stroke-linejoin="round" stroke-width="25"/>
<path d="m620.4862,660.526c4.64517,18.62418 14.5952,35.4237 2.12132,65.76092" stroke="#000" stroke-linecap="round" stroke-linejoin="round" stroke-width="25"/>
<g stroke="#000" stroke-width="26.54411" transform="matrix(1,0,0,.88704,0,71.35563)">
<path d="m972.97892,644.26254c-31.60398-18.99264-56.77357-9.82553-90.50966,0l-11.31371,37.83021c19.36321,54.58531-4.76724,95.25213 2.12133,143.54268 14.71581-.31378-2.33311,18.16191 38.18376,16.97056 26.28566-3.18989 53.7697,12.49124 77.332-37.62009 8.44503-27.31481 19.42896-161.97081-15.81372-160.72336z" stroke="#000" stroke-width="26.54411"/>
<g stroke="#000" stroke-width="26.54411" transform="matrix(-.99999,.00484,-.00484,-.99999,1525.1656,1236.819)">
<path d="m578.41341,528.25336c20.28881-3.80897 40.56332-4.65828 60.81119,0 18.63171,0 33.63125,14.99953 33.63125,33.63125s-14.99954,33.63124-33.63125,33.63124c-19.68375-3.49887-47.43553-9.5752-60.80094-2.1213" stroke="#000" stroke-width="26.54411"/>
</g>
<g stroke="#000" stroke-width="26.54411" transform="matrix(-.99999,.00484,-.00484,-.99999,1529.3476,1302.819)">
<path d="m583.36483,527.92377c19.59546-1.40889 35.32238-5.57231 60.81119,0 18.63171,0 33.63125,14.99953 33.63125,33.63125s-14.99954,33.63124-33.63125,33.63124c-20.25188-3.82918-40.51836-4.63969-60.81119,0" stroke="#000" stroke-width="26.54411"/>
</g>
<path d="m932.26447,842.31778h-48.08327c-18.10417,0-32.679-14.57483-32.679-32.679s14.57483-32.679 32.679-32.679c17.50099,4.71441 34.21991,3.82569 49.85104,1.06066" stroke="#000" stroke-width="26.54411"/>
</g>
</g>
<path d="m596.12864,1000.6671c106.55536-105.01317-113.42103-286.08298 27.22361-382.19123l68.2358,7.07107 32.88047,68.58935-17.67767,85.91348-24.74874,66.46803-8.48528,32.52692c-17.35504,83.5171-55.62885,106.80636-77.42819,121.62238z" fill="#171717" stroke="#000" stroke-linecap="round" stroke-linejoin="round" stroke-width="3.5"/>
<path d="m585.16848,634.38577c-33.20847,18.30961-29.83716,43.18775-6.56066,69.02869-15.97845,22.91732-29.15386,42.11454 4.82843,66.88226-33.31756,20.5061-11.45035,43.48706 3.24695,63.99316 44.26926-9.51801 100.03912,6.40798 123.64318-65.55382 10.28294-44.0831 24.79125-127.94122-26.87005-92.63099l-45.25484-41.7193c-15.25158-15.27565-34.09074-10.07945-53.03301,0z" fill="#a7a08c" stroke="#000" stroke-width="3.5"/>
<path d="m1160.4554,1213.2023c-35.2644-11.0812-103.8448-25.9279-154.9259-17.461-134.16899,22.239-230.92719,18.1348-369.76909-19.4553-57.91332-15.6795-122.84589,10.7672-184.54483,14.2714-183.34375,6.6463-140.61944-101.3184-85.54542-164.8178 74.93807-86.40221 247.90246-34.99369 98.22659,59.7452 88.44326-65.8209-17.92672-131.66427-77.2874-4.7632-8.33005,68.5266 47.37501,54.2694 86.37355,38.8975 110.73884-54.8131 133.48295-77.4409 195.16364-133.44292 84.0711-84.33509 113.61382-234.18814 153.42152-355.37865-57.73914,57.70077-105.12074,147.33728-148.43198,249.52407 2.06087-88.02682 101.42335-180.88421-49.36599-261.32272 58.76524-35.54086 142.51596-26.93472 179.80089-91.93848 17.12331-48.77867-.53432-104.18227-33.96742-162.59073-45.40959-86.54683-110.51702-282.57387 137.68129-264.94591 2.03844.334 141.90905-9.21946 207.88065,73.82254 33.5788,30.07763 17.4574,95.01769 5.4348,144.92767-17.2776,61.5884-52.4449,108.26868-83.3334,158.51464 54.2761,78.66497 118.0489,141.01251 100.0906,240.48936-16.0708,54.60866-46.0157,107.67576-83.7863,159.87333 27.0023,84.28939 3.612,202.7761 106.8842,336.051z" fill="#525252" stroke="#000" stroke-linecap="round" stroke-linejoin="round" stroke-width="3.5"/>
<path d="m814.49699,547.35894c-57.14868,82.39995-161.38326,66.69565-149.57713,97.87139-9.15887-7.07107-29.08319-15.79839-41.14977-26.23145 58.76524-35.54086 142.51596-26.93472 179.80089-91.93848 17.12331-48.77867-.53432-104.18227-33.96742-162.59073-24.73158-47.1363-55.30605-126.74723-37.92593-186.62959 69.44662-143.85503-12.17218,40.00699 17.21531,64.51926 9.22158,74.19704 114.46463,235.78023 65.60405,304.9996z" opacity=".45" stroke="#000" stroke-linecap="round" stroke-linejoin="round" stroke-width="3.5"/>
<path d="m442.21558,1153.5574c-86.84375,8.1463-94.56413-61.0781-48.04542-117.3178 67.20744-81.25171 171.40246-23.9937 69.72659,49.2452 88.44326-65.8209-17.92672-131.66427-77.2874-4.7632-8.33005,68.5266 47.37501,54.2694 86.37355,38.8975 110.73884-54.8131 133.48295-77.4409 195.16364-133.44292 84.0711-84.33509 114.61382-237.68814 154.42152-358.87865 .0829,264.4812-132.87981,466.29437-380.35248,526.25987z" opacity=".45"/>
<path d="m1050.7983,867.37745c18.9283,66.3052 13.7873,120.5667 37.9192,206.09655 17.8037,63.1005 46.3267,115.9745 69.561,138.618-24.2676-6.1675-44.0014-12.7554-64.3305-15.6693-50.0804-124.2894-38.2896-227.36593-43.1497-329.04525z" fill="#fff" opacity=".45"/>
<path d="m878.99778,518.97783c21.44164,81.44216 67.61327,143.50445 44,238 5.22373-6.16491 10.82061,8.28675 12.07958.40249 13.12835-82.216 4.41766-114.87554-56.07958-238.40249z" fill="#fff" opacity=".45"/>
<path d="m924.04211,623.52788c56.47233-88.30439 122.96779-166.13281 162.13789-271.73938 20.3264-52.29572 47.6162-97.45633 17.663-163.04364-29.4005-43.9853-78.1307-67.66853-198.36975-11.77537-105.18556,43.17715-96.24387,161.23615-69.72307,229.16688l88.29193,217.39151z" fill="#171717" stroke="#000" stroke-width="3.5"/>
<path d="m934.56806,614.79753c40.66498-61.74108 116.18254-154.88363 167.00294-300.73713 35.6337-63.34346 21.1767-158.67186-65.6328-168.55932-112.66223-44.41978-400.6261-30.11981-128.65335-45.97732 2.03844.334 141.90905-9.21946 207.88065,73.82254 33.5788,30.07763 17.4574,95.01769 5.4348,144.92767-17.2776,61.5884-52.4449,108.26868-83.3334,158.51464-.991.38174-88.08605,123.48059-102.69884,138.00892z" fill="#fff" opacity=".4231"/>
<path d="m1022.7741,569.6329c4.073,21.76381 3.3271,42.72445 3.6232,63.85876 8.9171,21.28441 9.9241,44.00704 11.7754,66.57614-8.7106,31.4875-59.19301,28.49945-62.50011,55.25368-67.26728,3.31416-12.65431-23.01599 23.7814-48.3352 26.75091-20.78451 17.60691-48.6602 16.54791-75.0092 5.8427-23.0749 4.042-58.50864 6.7722-62.34418z" opacity=".45"/>
<path d="m998.65939,591.743c6.72011,8.43976 13.04941,17.65258 21.08841,23.23483l-3.5758,17.09619-17.51261-40.33102z" fill="#2d2d2d"/>
<path d="m1037.7198,476.33571-100.80447,135.56169" fill="none" stroke="#000" stroke-linecap="round" stroke-linejoin="round" stroke-width="3.5"/>
<path d="m930.0496,207.31372c-14.73623,26.80139-16.21498,93.08474 22.19205,74.72833 16.27916-15.40849 33.83446-14.61076 38.04351,8.60508-.0349,28.59068 2.39559,45.27996-22.19205,74.72833-11.89897,9.03658-39.3521,9.52309-57.97107-7.24638-47.90706-57.96604-26.50781-134.8608 19.92756-150.81536z" fill="#c1000e" stroke="#410000" stroke-linecap="round" stroke-linejoin="round" stroke-width="3.5"/>
<path d="m930.0496,207.31372c-14.73623,26.80139-16.21498,93.08474 22.19205,74.72833 16.27916-15.40849 33.83446-14.61076 38.04351,8.60508-.0349,28.59068 2.39559,45.27996-22.19205,74.72833-11.89897,9.03658-39.3521,9.52309-57.97107-7.24638-47.90706-57.96604-26.50781-134.8608 19.92756-150.81536z" fill="#ff0012" filter="url(#filter3653)" stroke="#f00" stroke-linecap="round" stroke-linejoin="round" stroke-width="3.5"/>
<path d="m1064.0722,204.03431c13.2931,23.68096-.8852,87.5355-35.5311,71.31629-14.6851-13.61454-23.5823,15.00521-23.297,16.28767 .032,25.26194-6.65065,42.86193 15.5293,68.88171 10.7337,7.98449 23.6602-.7201 40.4559-15.53714 43.2157-51.21724 44.731-126.85152 2.8429-140.94853z" fill="#c1000e" stroke="#410000" stroke-linecap="round" stroke-linejoin="round" stroke-width="3.5"/>
<path d="m1064.0722,204.03431c13.2931,23.68096-.8852,87.5355-35.5311,71.31629-14.6851-13.61454-23.5823,15.00521-23.297,16.28767 .032,25.26194-6.65065,42.86193 15.5293,68.88171 10.7337,7.98449 23.6602-.7201 40.4559-15.53714 43.2157-51.21724 44.731-126.85152 2.8429-140.94853z" fill="#ff0012" filter="url(#filter3657)" stroke="#f00" stroke-linecap="round" stroke-linejoin="round" stroke-width="3.5"/>
<path d="m924.82665,622.24539c37.74458,78.31059.44735,182.68736 1.02705,273.02188" fill="none" stroke="#000" stroke-linecap="round" stroke-width="3.5"/>
<path d="m905.02035,657.49531c.13994-81.82712-88.91542-202.15425-101.44937-292.57274" fill="none" stroke="#000" stroke-linecap="round" stroke-width="3.5"/>
<path d="m1022.7741,569.6329c4.073,21.76381 3.3271,42.72445 3.6232,63.85876 8.9171,21.28441 9.9241,44.00704 11.7754,66.57614-8.7106,31.4875-56.69301,28.49945-62.50011,55.25368" fill="none" stroke="#000" stroke-linecap="round" stroke-width="3.5"/>
<path d="m1006.0168,844.54258c2.2264,99.28286-102.88015,222.12552-27.62681,269.02192-19.70858-4.7242-52.57855-13.8688-58.87687-83.3333-7.99868-85.31437 15.55335-178.9582 25.81524-268.56913 25.65693,2.66058 62.96844-48.28979 60.68844,82.88051z" fill="#171717" stroke="#000" stroke-linecap="round" stroke-linejoin="round" stroke-width="3.5"/>
<path d="m1036.6562,479.88294c169.9751,199.51662 98.0672,273.40135 12.8063,400.14131-27.3606,50.3058-56.6159,73.12727-90.23453,142.91665 70.78733-176.57798 260.18683-292.6169 63.67313-523.27788 1.2979-3.65483 15.0917-19.03395 13.7551-19.78008z" fill="#fff" opacity=".45"/>
<path d="m1053.1183,877.6042c-24.8581,49.71443-85.43816,106.97199-100.54356,167.1197" fill="none" stroke="#000" stroke-width="3.5"/>
<path d="m708.91217,212.24303-6.36397,53.74011c-145.78764,170.29016-168.5249,755.07256 54.44723,972.27176 59.44879,4.5313 61.24836-23.6053 65.76093-50.2046-162.2186-94.6502-302.62311-673.06162-65.76093-924.18848l79.90306-53.03301-127.98632,1.41422z" fill="#845130" stroke="#000" stroke-width="3.5"/>
<path d="m748.06039,256.08365c-253.82958,277.79568-78.34426,882.17305 68.57409,956.70375 4.91838-8.9927 4.2987-13.9904 6.12188-24.7371-162.2186-94.6502-302.62311-673.06162-65.76093-924.18848l79.90306-53.03301-9.72267,2.21018-79.11543,43.04466z" fill="#fff" opacity=".45"/>
<path d="m708.91217,212.24303-6.36397,53.74011c-145.78764,170.29016-168.5249,755.07256 54.44723,972.27176 6.47979.4939 12.27468.5997 17.46283.3617-198.42007-221.4184-249.88104-823.94534-11.55977-1022.28779l-53.98632-4.08578z" opacity=".45"/>
<path d="m105.66326,731.97783c94.46133-338.21006 398.71142-821.4367 987.00004-741.99999-176.47355-.18859-270.6708,76.12531-229.00004,238.99999-401.74069-79.48237-697.13818,373.34109-758,503z" fill="#999" stroke="#000" stroke-width="3.5"/>
<path d="m708.91217,212.24303-6.36397,53.74011c-145.78764,170.29016-168.5249,755.07256 54.44723,972.27176 59.44879,4.5313 61.24836-23.6053 65.76093-50.2046-162.2186-94.6502-302.62311-673.06162-65.76093-924.18848l79.90306-53.03301-127.98632,1.41422z" fill="none" stroke="#000" stroke-linecap="round" stroke-linejoin="round" stroke-width="3.5"/>
<path d="m105.66326,731.97783c22.57637-80.83261 57.13621-169.9488 104.69317-257.68722 73.16413-127.17834 327.45245-360.6723 646.48296-350.28014-5.47091,29.81278-3.4652,64.75143 6.82387,104.96736-401.74069-79.48237-697.13818,373.34109-758,503z" fill="#ddd"/>
<path d="m1025.0747,616.65785c-12.0447-6.68661-17.7795-16.9789-25.54164-26.1127" fill="none" stroke="#000" stroke-linecap="round" stroke-width="3.5"/>
<path d="m835.48428,597.61622c-.94022,13.51606-8.26072,22.47478-13.47056,32.94112-.89258-9.0643 2.71636-17.62844-3.5-27.28427" fill="none" stroke="#000" stroke-linecap="round" stroke-width="3.5"/>
<path d="m876.4979,98.40985c9.68192-.01913 19.93496.34317 30.78695,1.11392 2.03844.334 141.90905-9.21946 207.88065,73.82254 33.5788,30.07763 17.4574,95.01769 5.4348,144.92767-17.2776,61.5884-52.4449,108.26868-83.3334,158.51464 54.2761,78.66497 118.0489,141.01251 100.0906,240.48936-16.0708,54.60866-46.0157,107.67576-83.7863,159.87333 27.0023,84.28939 3.612,202.7761 106.8842,336.051-35.2644-11.0812-103.8448-25.9279-154.9259-17.461-63.94604,10.5993-119.39403,15.2146-174.95036,13.0726m-115.96139-13.9416c-25.02734-4.8952-51.10142-11.0716-78.85734-18.5863-57.91332-15.6795-122.84589,10.7672-184.54483,14.2714-183.34375,6.6463-140.61944-101.3184-85.54542-164.8178 74.93807-86.40221 247.90246-34.99369 98.22659,59.7452 88.44326-65.8209-17.92672-131.66427-77.2874-4.7632-8.33005,68.5266 47.37501,54.2694 86.37355,38.8975 84.49279-41.8219 117.75892-64.907 156.17874-98.3754m61.50629-60.77284c67.25052-86.81932 94.87093-219.98609 130.90013-329.67333-57.73914,57.70077-105.12074,147.33728-148.43198,249.52407m-31.90575-270.40102c56.8798-25.49008 128.61695-24.06518 162.34065-82.86018 17.12331-48.77867-.53432-104.18227-33.96742-162.59073-8.9043-16.97084-18.566-38.15127-26.47433-61.10494" fill="none" stroke="#000" stroke-linecap="round" stroke-linejoin="round" stroke-width="3.5"/>
<path d="m247.49778,522.97783-13-36.5 29.5,15.5-16.5,21z" stroke="#000" stroke-width="3.5"/>
<path d="m261.17749,504.60599-9.80787-26.75632 22.25632,11.36227-12.44845,15.39405z" stroke="#000" stroke-width="3.5"/>
<path d="m542.48199,278.73334-8.77076-44.53945 36.42746,30.30661-27.6567,14.23284z" stroke="#000" stroke-width="3.5"/>
<path d="m567.2208,267.9151-6.69133-28.90297 27.79098,19.66686-21.09965,9.23611z" stroke="#000" stroke-width="3.5"/>
<path d="m105.66326,731.97783c94.46133-338.21006 398.71142-821.4367 987.00004-741.99999-176.47355-.18859-270.6708,76.12531-229.00004,238.99999-401.74069-79.48237-697.13818,373.34109-758,503z" fill="none" stroke="#000" stroke-linecap="round" stroke-linejoin="round" stroke-width="3.5"/>
<path d="m687.25532,662.46727c0,23.2362-11.05849,34.29468-34.29468,34.29468s-43.48707,3.79076-43.48707-19.44544 12.4727-54.80077 35.7089-54.80077 42.07285,16.71534 42.07285,39.95153z" fill="#fff6db" stroke="#000" stroke-width="3.5"/>
<path d="m589.41122,703.28503h60.81118a33.63125,33.63125 0 0,1 33.63125,33.63125 33.63125,33.63125 0 0,1 -33.63125,33.63125h-60.81118a33.63125,33.63125 0 0,1 -33.63125-33.63125 33.63125,33.63125 0 0,1 33.63125-33.63125" fill="#fff6db" stroke="#000" stroke-width="3.5"/>
<path d="m592.59318,769.64471h48.08328a32.679,32.679 0 0,1 32.679,32.679 32.679,32.679 0 0,1 -32.679,32.679h-48.08328a32.679,32.679 0 0,1 -32.679-32.679 32.679,32.679 0 0,1 32.679-32.679" fill="#fff6db" stroke="#000" stroke-width="3.5"/>
<g transform="translate(10.99778,109.97783)">
<path d="m578.41342,528.25336h60.81118a33.63125,33.63125 0 0,1 33.63125,33.63125 33.63125,33.63125 0 0,1 -33.63125,33.63125h-60.81118a33.63125,33.63125 0 0,1 -33.63125-33.63125 33.63125,33.63125 0 0,1 33.63125-33.63125" fill="#fff6db" stroke="#000" stroke-width="3.5"/>
<path d="m623.31463,528.29703c4.64517,18.62418 14.5952,35.4237 2.12132,65.76092" fill="none" stroke="#000" stroke-linecap="round" stroke-linejoin="round" stroke-width="3.5"/>
</g>
<path d="m636.43373,703.68224c4.64517,18.62418 14.5952,35.4237 2.12132,65.76092" fill="none" stroke="#000" stroke-linecap="round" stroke-linejoin="round" stroke-width="3.5"/>
<path d="m631.48398,770.50383c4.64517,18.62418 14.5952,35.4237 2.12132,65.76092" fill="none" stroke="#000" stroke-linecap="round" stroke-linejoin="round" stroke-width="3.5"/>
<g transform="matrix(1,0,0,.88704,10.99778,181.33345)">
<path d="m972.97892,644.26254c-31.60398-18.99264-56.77357-9.82553-90.50966,0l-11.31371,37.83021c19.36321,54.58531-4.76724,95.25213 2.12133,143.54268 14.71581-.31378-2.33311,18.16191 38.18376,16.97056 26.28566-3.18989 53.7697,12.49124 77.332-37.62009 8.44503-27.31481 19.42896-161.97081-15.81372-160.72336z" fill="#fff6db" stroke="#000" stroke-width="3.71618"/>
<g transform="matrix(-.99999,.00484,-.00484,-.99999,1525.1656,1236.819)">
<path d="m578.41341,528.25336c20.28881-3.80897 40.56332-4.65828 60.81119,0 18.63171,0 33.63125,14.99953 33.63125,33.63125s-14.99954,33.63124-33.63125,33.63124c-19.68375-3.49887-47.43553-9.5752-60.80094-2.1213" fill="#fff6db" stroke="#000" stroke-width="3.71618"/>
</g>
<g transform="matrix(-.99999,.00484,-.00484,-.99999,1529.3476,1302.819)">
<path d="m583.36483,527.92377c19.59546-1.40889 35.32238-5.57231 60.81119,0 18.63171,0 33.63125,14.99953 33.63125,33.63125s-14.99954,33.63124-33.63125,33.63124c-20.25188-3.82918-40.51836-4.63969-60.81119,0" fill="#fff6db" stroke="#000" stroke-width="3.71618"/>
</g>
<path d="m932.26447,842.31778h-48.08327c-18.10417,0-32.679-14.57483-32.679-32.679s14.57483-32.679 32.679-32.679c17.50099,4.71441 34.21991,3.82569 49.85104,1.06066" fill="#fff6db" stroke="#000" stroke-width="3.71618"/>
</g>
<g fill="#fff" transform="matrix(1,0,0,.88704,10.99778,181.33345)">
<path d="m972.97892,644.26254c-11.10626-6.98917-22.48319-9.94493-33.98869-10.43435-7.04092,2.01416 9.81284,8.31773 3.13405,11.56342-24.57818,11.94426-23.6447,44.38557-15.44022,65.25188-13.26782,22.06224-13.35447,44.42902 1.6698,67.13956-6.66726,17.86852-10.64685,42.21313 4.26492,64.69044 19.48759.62865 38.88628-.72108 56.17386-37.48759 8.44503-27.31481 19.42896-161.97081-15.81372-160.72336z" fill="#fff" opacity=".45"/>
</g>
<g transform="translate(10.99778,109.97783)">
<path d="m578.41341,528.25336c-14.30763,25.43296-10.92964,47.14264 0,67.26249-18.63171,0-33.63124-14.99953-33.63124-33.63124s14.99953-33.63125 33.63124-33.63125z" fill="#2d2d2d" opacity=".35"/>
<path d="m623.31463,528.29703c4.64517,18.62418 14.5952,35.4237 2.12132,65.76092" fill="none" stroke="#000" stroke-linecap="round" stroke-linejoin="round" stroke-width="3.5"/>
<path d="m578.41341,593.25336c-14.30763,25.43296-10.92964,47.14264 0,67.26249-18.63171,0-33.63124-14.99953-33.63124-33.63124s14.99953-33.63125 33.63124-33.63125z" fill="#2d2d2d" opacity=".35"/>
<path d="m583.41341,660.25336c-14.30763,25.43296-10.92964,47.14264 0,67.26249-18.63171,0-33.63124-14.99953-33.63124-33.63124s14.99953-33.63125 33.63124-33.63125z" fill="#2d2d2d" opacity=".35"/>
<path d="m638.22296,530.56204c14.30763,23.8249 10.92964,44.16194 0,63.00966 18.63171,0 33.63124-14.05115 33.63124-31.50482s-14.99953-31.50484-33.63124-31.50484z" fill="#fff" opacity=".35"/>
<path d="m637.00786,596.17716c14.30763,23.27356 10.92964,43.13997 0,61.55154 18.63171,0 33.63124-13.72599 33.63124-30.77577s-14.99953-30.77577-33.63124-30.77577z" fill="#fff" opacity=".35"/>
<path d="m627.40861,661.91379c14.30763,23.4114 10.92964,43.39546 0,61.91607 18.63171,0 33.63124-13.80728 33.63124-30.95803s-14.99953-30.95804-33.63124-30.95804z" fill="#fff" opacity=".35"/>
</g>
<path d="m876.23187,1209.8164 7.23877-62.1491 7.44662,63.2842-14.68539-1.1351z" stroke="#000" stroke-linecap="round" stroke-linejoin="round" stroke-width="3.001"/>
<path d="m848.64175,1207.9591 7.61212-33.0327 7.83069,33.636-15.44281-.6033z" stroke="#000" stroke-linecap="round" stroke-linejoin="round" stroke-width="2.24358"/>
<path d="m861.83313,1207.7406 7.85232-19.6228 8.07779,19.9811-15.93011-.3583z" stroke="#000" stroke-linecap="round" stroke-linejoin="round" stroke-width="1.75629"/>
<path d="m336.01117,1164.9991 16.38781-13.3474-2.63275,21.3907-13.75506-8.0433z" stroke="#000" stroke-linecap="round" stroke-linejoin="round" stroke-width="1.75629"/>
<path d="m1134.4594,1177.9131-20.9643-2.6857 17.3201-12.8261 3.6442,15.5118z" stroke="#000" stroke-linecap="round" stroke-linejoin="round" stroke-width="1.75629"/>
<path d="m1127.2846,1166.7705-31.6403-12.1652 34.4013-3.0408-2.761,15.206z" stroke="#000" stroke-linecap="round" stroke-linejoin="round" stroke-width="2.24358"/>
<path d="m893.80492,810.80154c-14.30763,22.44409-10.92964,41.60246 0,59.35783-18.63171,0-33.63124-13.23679-33.63124-29.67891s14.99953-29.67892 33.63124-29.67892z" fill="#2d2d2d" opacity=".35"/>
<path d="m895.17964,870.60198c-14.30763,22.44409-10.92964,41.60246 0,59.35783-18.63171,0-33.63124-13.23679-33.63124-29.67891s14.99953-29.67892 33.63124-29.67892z" fill="#2d2d2d" opacity=".35"/>
<path d="m894.1486,753.40686c-14.30763,22.44409-10.92964,41.60246 0,59.35783-18.63171,0-33.63124-13.23679-33.63124-29.67891s14.99953-29.67892 33.63124-29.67892z" fill="#2d2d2d" opacity=".35"/>
<path d="m932.02837,165.59206-25.06668-22.82021 39.96333,16.458-14.89665,6.36221z" stroke="#000" stroke-linecap="round" stroke-linejoin="round" stroke-width="2.24358"/>
<path d="m919.39139,169.9664-17.77611-11.64134 32.67276,5.27913-14.89665,6.36221z" stroke="#000" stroke-linecap="round" stroke-linejoin="round" stroke-width="2.24358"/>
</g>
</svg>
