<?xml version="1.0" encoding="UTF-8" standalone="no"?>
<!DOCTYPE svg PUBLIC "-//W3C//DTD SVG 1.0//EN" "http://www.w3.org/TR/2001/REC-SVG-20010904/DTD/svg10.dtd">
<svg viewBox="0 0 600 570" xmlns="http://www.w3.org/2000/svg" xmlns:xlink="http://www.w3.org/1999/xlink">
<defs>
<linearGradient id="linearGradient694">
<stop offset="0" stop-color="#9e0000" stop-opacity="0"/>
<stop offset="1" stop-color="#df0000"/>
</linearGradient>
<linearGradient id="linearGradient662">
<stop offset="0" stop-color="#73d500"/>
<stop offset="1" stop-color="#004700"/>
</linearGradient>
<linearGradient id="linearGradient655">
<stop offset="0" stop-color="#fff7cf"/>
<stop offset="1" stop-color="#ffda62"/>
</linearGradient>
<linearGradient id="linearGradient634">
<stop offset="0" stop-opacity="0"/>
<stop offset="1" stop-color="#ad0000" stop-opacity=".0902"/>
</linearGradient>
<linearGradient id="linearGradient601">
<stop offset="0" stop-color="#ffd200"/>
<stop offset="1" stop-color="#ff8500"/>
</linearGradient>
<linearGradient id="linearGradient579">
<stop offset="0" stop-opacity=".05098"/>
<stop offset="1" stop-color="#ad0000" stop-opacity=".0902"/>
</linearGradient>
<linearGradient id="linearGradient564">
<stop offset="0" stop-color="#ff6a00"/>
<stop offset="1" stop-color="#ff9f00"/>
</linearGradient>
<linearGradient id="linearGradient691" x1="-.11428" x2=".57143" y1=".35938" y2=".73438">
<stop offset="0" stop-opacity=".52941"/>
<stop offset="1" stop-opacity="0"/>
</linearGradient>
<linearGradient id="linearGradient567" x1="-.36446" x2="-.03125" xlink:href="#linearGradient564" y1=".11709" y2="1.24219"/>
<linearGradient id="linearGradient568" x2="0" xlink:href="#linearGradient564" y1=".17174" y2="1.01562"/>
<linearGradient id="linearGradient570" xlink:href="#linearGradient601"/>
<linearGradient id="linearGradient575" x2="1" xlink:href="#linearGradient579"/>
<linearGradient id="linearGradient583" x1="-.90001" x2=".6" xlink:href="#linearGradient579" y1=".29688" y2=".71875"/>
<linearGradient id="linearGradient610" x1=".34127" x2=".39683" xlink:href="#linearGradient694" y1=".02395" y2=".92216"/>
<linearGradient id="linearGradient625" x2="1" xlink:href="#linearGradient634"/>
<linearGradient id="linearGradient642" x1=".35271" x2=".35659" xlink:href="#linearGradient564" y1=".03571" y2="1.47857"/>
<linearGradient id="linearGradient658" x1=".46666" x2="1.05833" xlink:href="#linearGradient655" y1=".50712" y2=".47857"/>
<linearGradient id="linearGradient660" x1=".79093" x2="-.6" xlink:href="#linearGradient655" y1=".45721" y2=".42857"/>
<linearGradient id="linearGradient661" x1=".29286" x2=".9" xlink:href="#linearGradient662" y1=".22143" y2=".48572"/>
<linearGradient id="linearGradient680" x1=".57143" x2="1.38961" xlink:href="#linearGradient564" y1=".36428" y2=".78571"/>
<linearGradient id="linearGradient689" x1=".98682" x2=".51789" xlink:href="#linearGradient694" y1="-.39438" y2=".75352"/>
<linearGradient id="linearGradient690" x1=".96072" x2="-.16667" xlink:href="#linearGradient662" y1=".49629" y2=".17778"/>
<linearGradient id="linearGradient692" x1=".54175" x2=".58334" xlink:href="#linearGradient564" y1=".06248" y2=".92969"/>
<radialGradient cx="-.08333" cy=".17969" id="radialGradient585" r="1.21485">
<stop offset="0" stop-color="#ffdf00"/>
<stop offset="1" stop-color="#ff6f00"/>
</radialGradient>
<radialGradient cx="-.02174" cy=".19531" id="radialGradient584" r="1.04479" xlink:href="#linearGradient601"/>
<radialGradient cx="-.23077" cy=".10156" id="radialGradient604" r="1.08423" xlink:href="#linearGradient601"/>
<radialGradient cx=".14803" cy=".60952" id="radialGradient626" r="1.01425" xlink:href="#linearGradient634"/>
<radialGradient cx=".49664" cy=".22857" id="radialGradient651" r=".52496" xlink:href="#linearGradient655"/>
</defs>
<g transform="translate(-80,-234)">
<path d="m241.78961,698.60754a115.05614,34.34512 0 1,0 -230.11227,0 115.056,34.3451 0 1,0 230.11266.00046l-115.05652-.00046z" fill="url(#radialGradient626)" fill-rule="evenodd" transform="matrix(2.14908,0,0,2.45086,133.7676,-1040.151)"/>
<path d="m337.157,282.539c6.127,6.918 13.266,15.257 19.395,22.173l32.353-15.91c5.882-7.609 13.321-12.289 19.205-19.896 .735-2.535-.308-5.281.427-8.446-54.446,25.687-52.424,1.497-71.38,22.079z" fill="url(#linearGradient690)" fill-rule="evenodd"/>
<path d="m260.572,360.85c0,0 72.287,46.507 72.287,45.701s59.006-45.163 59.006-45.163c-37.322-49.056 27.829-78.384 16.111-103.907-14.23,8.859-27.89,35.377-42.691,26.58-7.452,10.888-21.169,4.119-28.053-2.081-6.948,42.561-7.63,61.371-76.66,78.87z" fill="url(#linearGradient661)" fill-rule="evenodd"/>
<path d="m333.303,373.682c10.74,130.222 21.48,261.23 32.219,391.451l-49.94-14.498c-268.7637,63.096-263.2257-478.016 17.721-376.953z" fill="url(#radialGradient604)" fill-rule="evenodd"/>
<path d="m371.745,359.184c184.328-42.26 237.762,121.345 240.858,157.054 25.036,152.798-92.596,220.972-151.661,228.76-28.372-128.877-60.824-256.937-89.197-385.814z" fill="url(#linearGradient570)" fill-rule="evenodd"/>
<path d="m351.161,289.617c6.497-.758 12.994-.541 19.491-1.299-4.548,25.23-.324,72.225-4.872,97.455 14.293-1.299-47.753-17.542-47.753-17.867 20.465-18.841 33.784-70.817 33.134-78.289z" fill="url(#linearGradient691)" fill-rule="evenodd"/>
<path d="m318.803,368.836c.806,0 12.725,4.94 12.725,4.94l40.437-14.605 38.663,11.276 103.103,158.681c0,0-48.33,153.848-48.33,154.652 0,.806-51.551,70.077-51.551,70.077h-20.137l-24.164,15.305-53.969-19.332c-166.467-163.244-68.735-372.402 3.223-380.994z" fill="url(#radialGradient584)" fill-rule="evenodd"/>
<path d="m330.831,372.786c-53.524,41.577-67.54,115.618-67.682,205.011 4.167-90.239 14.734-154.506 67.682-205.011z" fill="#fff4cc" fill-opacity=".18824" fill-rule="evenodd"/>
<path d="m312.875,467.043c-6.353,46.122-12.919,81.277.961,157.07-11.94-41.405-22.715-86.211-.961-157.07z" fill="#ffa400" fill-rule="evenodd"/>
<path d="m342.224,762.058c-53.525-39.292-70.497-112.527-70.639-197.009 4.167,85.282 17.691,149.278 70.639,197.009z" fill="url(#linearGradient575)" fill-rule="evenodd"/>
<path d="m351.681,367.14c168.336,78.314 75.297,310.428 40.822,386.315 8.323,4.297 23.09,5.371 35.844,4.029s24.7-5.503 36.65-11.678c70.345-54.237 96.202-198.197 80.815-255.441-16.137-59.185-106.649-156.088-194.131-123.225z" fill="url(#radialGradient585)" fill-rule="evenodd"/>
<path d="m369.045,767.268c43.155-39.67 67.424-144.907 80.146-200.299-8.155,68.646-28.078,148.764-61.104,189.306-5.942,5.493-16.446,11.239-19.042,10.993z" fill="url(#linearGradient575)" fill-rule="evenodd"/>
<path d="m357.027,360.436c80.493,27.169 106.015,77.806 106.227,136.22-6.265-58.968-26.601-103.217-106.227-136.22z" fill="url(#linearGradient575)" fill-rule="evenodd"/>
<path d="m330.452,753.467c-103.026-44.076-134.033-233.378-75.848-322.566-78.426,114.771-12.881,264.735 52.392,309.432 7.077,4.758 6.696,14.072 23.456,13.134z" fill="url(#linearGradient583)" fill-rule="evenodd"/>
<path d="m371.049,769.077c25.14-54.219 36.25-102.794 36.397-157.998-4.354,55.729-17.868,95.258-36.397,157.998z" fill="#f7de00" fill-opacity=".25157" fill-rule="evenodd"/>
<path d="m368.479,769.077c25.14-54.219 39.122-102.076 39.269-157.28-4.354,55.729-20.74,94.54-39.269,157.28z" fill="url(#linearGradient575)" fill-rule="evenodd"/>
<path d="m400.765,755.142c80.557-119.997 69.357-188.37 74.221-200.888-.37,89.083-29.154,136.629-69.329,198.669-4.22,6.269 1.461,1.338-4.892,2.219z" fill="url(#linearGradient575)" fill-rule="evenodd"/>
<path d="m238.349,578.058c10.127,9.347 39.254,31.085 49.381,40.433-.81,15.578-1.451,22.402-2.92,37.981 0,0 26.443,4.586 32.227,5.654 1.318-7.605 3.409-20.984 4.236-30.898 13.047,1.168 110.446,37.084 161.854-47.428 28.821,128.327-208.168,212.357-244.778-5.742z" fill="url(#linearGradient642)" fill-rule="evenodd"/>
<path d="m358.031,359.431c80.493,27.169 106.015,77.806 106.227,136.22-6.265-58.968-26.601-103.217-106.227-136.22z" fill="#f7de00" fill-opacity=".25098" fill-rule="evenodd"/>
<path d="m336.148,371.8c14.684,19.201 18.1,20.84 17.767,71.46-1.128-44.558-4.584-46.522-17.767-71.46z" fill="url(#linearGradient575)" fill-rule="evenodd"/>
<path d="m490.869,412.257c-16.607,51.29-39.515,91.844-90.893,124.831 7.805,1.011 32.625,5.112 40.432,6.125l16.036-16.581 4.086,18.599c7.8,1.009 25.284,2.978 33.094,3.985 12.254-47.788 11.965-95.459-2.755-136.959z" fill="url(#linearGradient567)" fill-rule="evenodd"/>
<path d="m367.431,350.665c71.617,25.985 117.78,67.481 112.66,120.447-6.394-75.843-65.396-94.073-102.895-115.455-3.563,5.153-3.383-5.464-9.765-4.992z" fill="url(#linearGradient625)" fill-rule="evenodd"/>
<path d="m239.964,413.377c16.606,51.29 39.514,91.842 90.892,124.831-7.804,1.011-32.625,5.111-40.432,6.123l-23.107-19.227 5.419,20.84c-7.801,1.011-27.718,3.385-35.528,4.392-12.254-47.788-11.965-95.459 2.756-136.959z" fill="url(#linearGradient568)" fill-rule="evenodd"/>
<path d="m329.047,372.13c-53.525,41.576-66.882,116.274-67.024,205.667 4.167-90.239 14.075-155.162 67.024-205.667z" fill="url(#linearGradient575)" fill-rule="evenodd"/>
<path d="m481.297,438.291c-13.913,37.663-32.763,61.163-73.032,90.623 6.539.739 22.994,4.392 29.537,5.137l15.777-16.809 4.829,18.695c6.543.745 18.655,2.187 25.202,2.926 10.269-35.091 10.027-70.097-2.313-100.572z" fill="url(#linearGradient658)" fill-rule="evenodd"/>
<path d="m248.304,437.106c14.751,35.911 33.491,63.613 68.123,90.776-5.997.72-22.5,1.641-28.499,2.363l-21.909-4.95 4.015,6.386c-5.993.72-16.993,2.119-22.992,2.834-9.416-33.989-10.048-67.893 1.262-97.409z" fill="url(#linearGradient660)" fill-rule="evenodd"/>
<path d="m382.981,436.103c16.723,66.116 15.72,128.854-3.012,201.39 14.06-20.719 26.607-52.847 27.109-89.725-2.51-43.924-12.551-78.927-24.097-111.665z" fill="#ff9000" fill-rule="evenodd"/>
<path d="m419.579,759.622c101.261-68.258 91.871-136.876 98.314-145.975 .128,53.823-38.044,110.472-91.84,144.363-5.966-3.575 1.938.973-6.474,1.612z" fill="url(#linearGradient575)" fill-rule="evenodd"/>
<path d="m489.612,413.417c-5.649,28.196-21.549,62.47-43.621,80.272-16.757,23.267-35.021,34.169-47.706,42.224" fill="none" stroke="#d94842" stroke-linejoin="bevel" stroke-opacity=".7044" stroke-width="2.01047"/>
<path d="m240.953,415.73c-17.899,30.201-13.981,104.028-3.915,134.231" fill="none" stroke="#d94842" stroke-linecap="round" stroke-linejoin="round" stroke-opacity=".7044" stroke-width="2.01047"/>
<path d="m265.64,524.102 2.503-8.216 22.205,14.682 .264,11.445-24.972-17.911z" fill="#eb7f3d" fill-rule="evenodd"/>
<path d="m236.126,550.309 36.532-5.847-5.262-18.376 22.896,16.262 38.787-4.85" fill="none" stroke="#d94842" stroke-opacity=".7044" stroke-width="2.01047"/>
<path d="m495.242,549.086-35.314-3.818-3.693-18.977-13.941,16.863-43.379-6.572" fill="none" stroke="#d94842" stroke-opacity=".7044" stroke-width="2.01047"/>
<path d="m409.703,758.736c91.452-101.592 78.738-159.477 84.258-170.075 .107,62.71-33.098,115.673-78.709,168.195-2.054,1.383 1.662,1.135-5.549,1.88z" fill="url(#linearGradient575)" fill-rule="evenodd"/>
<path d="m417.927,759.622c102.162-95.185 89.192-172.389 95.445-183.847 .123,67.788-33.477,131.925-89.161,181.816-5.79-4.502 1.884,1.225-6.284,2.031z" fill="url(#linearGradient625)" fill-rule="evenodd"/>
<path d="m248.162,585.437c10.127,8.228 29.441,21.219 39.568,29.451-.81,13.711-.561,19.717-2.03,33.431 0,0 25.553,4.036 31.337,4.976 1.318-6.694 3.409-18.469 4.236-27.197 13.047,1.028 108.782,38.517 161.667-38.723 14.251,125.972-207.094,152.187-234.778-1.938z" fill="url(#radialGradient651)" fill-rule="evenodd"/>
<path d="m237.75,579.277c34.004,198.846 259.927,150.179 245.239,5.35" fill="none" stroke="#d94842" stroke-linecap="round" stroke-opacity=".7044" stroke-width="2.15408"/>
<path d="m438.487,753.721c102.031-33.062 139.173-263.376 88.74-310.771 65.358,73.821-12.026,279.314-58.225,300.826-7.421,4.758-12.936,10.885-30.515,9.945z" fill="url(#linearGradient583)" fill-rule="evenodd"/>
<path d="m370.353,351.793c83.017,18.757 132.739,53.892 154.711,97.686-21.706-53.105-79.282-84.133-149.139-95.537-5.133,4.76 1.664-1.297-5.572-2.149z" fill="url(#linearGradient575)" fill-rule="evenodd"/>
<path d="m274.444,361.089c-105.854-9.114-152.882,104.292-153.474,163.419 13.505-92.698 58.584-157.851 153.474-163.419z" fill="url(#linearGradient575)" fill-rule="evenodd"/>
<path d="m491.489,736.183c76.854-29.447 114.032-116.855 105.724-201.527-2.108,107.377-42.93,176.913-105.724,201.527z" fill="url(#linearGradient575)" fill-rule="evenodd"/>
<path d="m281.973,757.191c-76.599-1.628-133.699-55.152-143.965-106.822 30.586,67.587 80.738,104.807 143.965,106.822z" fill="url(#linearGradient575)" fill-rule="evenodd"/>
<path d="m469.841,741.687c34.735-5.311 70.749-26.184 82.814-86.332-15.605,58.206-49.096,77.478-82.814,86.332z" fill="url(#linearGradient575)" fill-rule="evenodd"/>
<path d="m401.875,353.141c149.957,20.057 199.33,120.433 172.601,230.163 24.079-125.735-44.426-209.484-172.601-230.163z" fill="#fff4cc" fill-opacity=".18824" fill-rule="evenodd"/>
<path d="m433.112,353.58c76.599,1.627 155.169,64.641 155.316,123.056-4.354-58.968-92.089-121.042-155.316-123.056z" fill="url(#linearGradient575)" fill-rule="evenodd"/>
<path d="m301.957,364.245c-59.734,5.237-93.759,25.937-121.557,89.133 34.222-62.478 63.569-80.404 121.557-89.133z" fill="url(#linearGradient575)" fill-rule="evenodd"/>
<path d="m469.437,741.57c66.646-20.244 77.03-82.28 83.952-160.501-6.65,84.521-26.682,139.493-83.952,160.501z" fill="url(#linearGradient575)" fill-rule="evenodd"/>
<path d="m367.786,527.225-27.067,56.125 59.63-1.386-32.563-54.739z" fill="url(#linearGradient680)" fill-rule="evenodd"/>
<path d="m366.857,527.803-25.962,54.503 59.165-.93" fill="none" stroke="#d94842" stroke-linecap="round" stroke-linejoin="round" stroke-opacity=".7044" stroke-width="2.39343"/>
<path d="m363.452,537.965-16.319,34.136 37.267.197-20.948-34.333z" fill="#fff4cf" fill-rule="evenodd"/>
<path d="m456.892,524.252-3.476-6.796-15.695,16.342 4.446,8.889 14.725-18.435z" fill="#ffa900" fill-rule="evenodd"/>
<path d="m305.951,365.154c-111.84,29.363-124.743,151.502-124.898,230.117 .354-97.014 30.542-205.189 124.898-230.117z" fill="#fff4cc" fill-opacity=".18868" fill-rule="evenodd"/>
<path d="m291.656,363.153c-76.599,1.628-134.823,50.281-134.972,108.696 4.354-58.968 71.745-106.681 134.972-108.696z" fill="url(#linearGradient575)" fill-rule="evenodd"/>
<path d="m330.619,373.577c290.039-121.697 399.612,307.183 137.768,368.876" fill="none" stroke="url(#linearGradient610)" stroke-linecap="round" stroke-linejoin="round" stroke-width="2.35835"/>
<path d="m338.471,372.057c55.941,23.218 71.586,70.836 71.734,129.25-4.355-58.968-16.165-98.107-71.734-129.25z" fill="url(#linearGradient575)" fill-rule="evenodd"/>
<path d="m307.787,364.18c-118.903,29.033-128.519,150.35-128.674,228.966 .353-97.014 31.526-204.697 128.674-228.966z" fill="url(#linearGradient575)" fill-rule="evenodd"/>
<path d="m290.518,761.302c-130.186-29.034-156.37-144.774-142.653-227.906-6.924,104.302 36.286,203.636 142.653,227.906z" fill="#ffbf00" fill-opacity=".28235" fill-rule="evenodd"/>
<path d="m292.406,364.281c-76.599,1.628-133.696,51.784-134.971,108.696 3.603-58.218 71.745-106.682 134.971-108.696z" fill="#fff4cc" fill-opacity=".18824" fill-rule="evenodd"/>
<path d="m399.75,353.672c149.956,20.056 199.33,120.433 172.6,230.162 24.08-125.735-44.426-209.483-172.6-230.162z" fill="url(#linearGradient575)" fill-rule="evenodd"/>
<path d="m302.487,365.307c-60.53,5.503-92.166,27.531-121.557,89.133 34.489-61.947 61.976-80.403 121.557-89.133z" fill="#fff4cc" fill-opacity=".18824" fill-rule="evenodd"/>
<path d="m174.33,477.032c-16.093,61.772-18.586,102.946 4.207,176.979-16.905-45.923-32.072-99.872-4.207-176.979z" fill="url(#linearGradient575)" fill-rule="evenodd"/>
<path d="m175.709,477.032c-16.094,60.648-18.587,101.073 4.206,173.761-16.905-45.087-32.071-98.056-4.206-173.761z" fill="#ffbf00" fill-opacity=".43396" fill-rule="evenodd"/>
<path d="m288.749,761.302c-130.185-29.034-154.956-145.48-140.884-228.966-10.106,107.131 34.517,204.696 140.884,228.966z" fill="url(#linearGradient575)" fill-rule="evenodd"/>
<path d="m318.276,754.903c-58.838-5.237-104.732-28.331-117.969-89.733 17.798,59.487 60.851,81.003 117.969,89.733z" fill="url(#linearGradient575)" fill-rule="evenodd"/>
<path d="m317.452,653.499 7.033-6.857 3.092-19.578-6.013-1.571-4.112,28.006z" fill="url(#linearGradient692)" fill-rule="evenodd"/>
<path d="m334.795,753.949c-112.895-19.961-124.004-87.413-126.373-165.795 2.627,87.526 29.363,145.081 126.373,165.795z" fill="url(#linearGradient575)" fill-rule="evenodd"/>
<path d="m488.986,737.683c76.853-29.447 114.414-118.003 106.105-202.674-2.108,107.376-43.311,178.06-106.105,202.674z" fill="#ffbf00" fill-opacity=".28302" fill-rule="evenodd"/>
<path d="m318.313,368.49c-45.688,9.062-65.942,55.634-73.775,77.537 29.581-60.695 46.65-68.119 73.775-77.537z" fill="url(#linearGradient575)" fill-rule="evenodd"/>
<path d="m333.027,372.949c-3.481,11.948-5.29,69.195-5.307,151.542 .476-83.126 2.638-132.892 5.307-151.542z" fill="url(#linearGradient575)" fill-rule="evenodd"/>
<path d="m333.027,372.949c-15.547,6.405-23.633,37.09-23.706,81.231 2.131-44.558 11.783-71.234 23.706-81.231z" fill="url(#linearGradient575)" fill-rule="evenodd"/>
<path d="m337.311,371.8c14.684,19.201 18.1,20.84 17.766,71.46-1.127-44.558-4.583-46.522-17.766-71.46z" fill="#fff4cc" fill-opacity=".18824" fill-rule="evenodd"/>
<path d="m338.705,371.825c55.94,21.359 72.514,70.371 72.662,128.785-4.354-58.968-17.327-100.663-72.662-128.785z" fill="#fff4cc" fill-opacity=".18824" fill-rule="evenodd"/>
<path d="m466.879,743.353c-22.877,18.364-53.174,16.543-73.216,10.682-8.13,5.105-15.495,9.541-23.625,14.645" fill="none" stroke="url(#linearGradient689)" stroke-linecap="round" stroke-width="2.39343"/>
<path d="m350.886,289.147c-1.754,28.497-18.132,62.676-33.039,79.336" fill="none" stroke="#006f00" stroke-width="2.39343"/>
<path d="m411.631,758.736c91.452-101.592 77.661-159.836 83.181-170.434 .107,62.71-32.021,116.032-77.632,168.554-2.341,1.288 1.662,1.135-5.549,1.88z" fill="#f7de00" fill-opacity=".33962" fill-rule="evenodd"/>
<path d="m336.302,753.447c-112.895-19.961-124.004-87.413-126.373-165.795 2.627,87.526 29.363,145.081 126.373,165.795z" fill="#f7de00" fill-opacity=".25098" fill-rule="evenodd"/>
<path d="m421.086,759.622c101.261-68.258 91.871-136.876 98.314-145.975 .128,53.823-38.044,110.472-91.84,144.363-5.966-3.575 1.938.973-6.474,1.612z" fill="#f7de00" fill-opacity=".25098" fill-rule="evenodd"/>
<path d="m372.055,285.429c-2.895,26.635-19.072,57.632-4.166,74.292" fill="none" stroke="#008000" stroke-width="2.39343"/>
<path d="m408.438,258.467c7.5,21.112-47.659,57.632-19.434,97.356" fill="none" stroke="#65ad00" stroke-width="2.39343"/>
</g>
</svg>
